<?xml version="1.0" encoding="UTF-8" standalone="no"?>
<!-- Created with Inkscape (http://www.inkscape.org/) -->

<svg
   xmlns:dc="http://purl.org/dc/elements/1.1/"
   xmlns:cc="http://creativecommons.org/ns#"
   xmlns:rdf="http://www.w3.org/1999/02/22-rdf-syntax-ns#"
   xmlns:svg="http://www.w3.org/2000/svg"
   xmlns="http://www.w3.org/2000/svg"
   xmlns:sodipodi="http://sodipodi.sourceforge.net/DTD/sodipodi-0.dtd"
   xmlns:inkscape="http://www.inkscape.org/namespaces/inkscape"
   width="744.09448819"
   height="1052.3622047"
   id="svg3032"
   version="1.1"
   inkscape:version="0.48.5 r10040"
   sodipodi:docname="dog-cat.svg">
  <defs
     id="defs3034" />
  <sodipodi:namedview
     id="base"
     pagecolor="#ffffff"
     bordercolor="#666666"
     borderopacity="1.0"
     inkscape:pageopacity="0.0"
     inkscape:pageshadow="2"
     inkscape:zoom="0.35"
     inkscape:cx="375"
     inkscape:cy="520"
     inkscape:document-units="px"
     inkscape:current-layer="layer1"
     showgrid="false"
     inkscape:window-width="1360"
     inkscape:window-height="676"
     inkscape:window-x="0"
     inkscape:window-y="27"
     inkscape:window-maximized="1" />
  <metadata
     id="metadata3037">
    <rdf:RDF>
      <cc:Work
         rdf:about="">
        <dc:format>image/svg+xml</dc:format>
        <dc:type
           rdf:resource="http://purl.org/dc/dcmitype/StillImage" />
        <dc:title></dc:title>
      </cc:Work>
    </rdf:RDF>
  </metadata>
  <g
     inkscape:label="Layer 1"
     inkscape:groupmode="layer"
     id="layer1">
    <path
       style="fill:#000000"
       d="m -8.3113486,-34.23882 c -6.8456204,4.25709 -14.5538604,9.74043 -23.0625004,7.21874 -6.60911,-0.3852 -14.61963,4.37992 -19.9375,-1.46875 -2.44571,-1.67279 -5.5454,-4.88039 -7.90625,-5.37499 -0.74242,7.71291 5.23028,14.6232 2.62203,22.33552 -2.27805,8.39492 0.7549,16.68337 5.15922,23.78947 3.27283,5.85114 -4.39139,8.94274 -6.78125,13.5 -5.64593,6.58622 -5.9558,15.44495 -4.96875,23.625 0.10281,6.66929 -7.79011,8.34611 -10.4375,13.5625 -8.29123,9.59608 -9.14643,22.87047 -7.0625,34.75 0.85629,4.31546 0.0854,9.91323 -5.21875,10.1875 -15.927831,1.89863 -32.622831,-6.406 -39.812501,-20.875 -4.91345,-8.5442 -5.80912,-18.50374 -4.34344,-28.06772 0.93004,-4.62523 7.46757,-13.90341 6.03651,-15.46961 -2.076,-1.96122 -6.18481,1.09777 -7.85932,3.41125 -6.77767,9.36392 -6.48387,22.97035 -3.1775,34.53233 5.28655,19.85793 24.67322,34.52534 45.281251,33.96875 28.49317,-0.085 57.31434,2.37814 85.6250004,-0.0625 1.54275,-5.32429 -6.5915504,-5.03197 -7.7500004,-9.53125 -4.172,-9.81072 -2.83885,-21.29291 -1.90567,-31.67958 1.32332,-13.91513 8.1797304,-27.56194 3.53067,-41.53917 -1.49089,-5.69152 -4.07662,-10.94141 -7.28125,-15.8125 6.23326,-9.80093 10.8756504,-21.86555 6.375,-33.28125 -1.41194,-6.25361 2.2948304,-11.95616 3.2187504,-17.87499 z"
       id="path2996"
       inkscape:connector-curvature="0"
       sodipodi:nodetypes="ccccccccccccccacccccccccc" />
    <path
       style="fill:#000000"
       d="m 12.808801,116.31079 -6.0721296,-0.2931 0.0721,-5.0422 c 0.062,-4.33105 -0.3236,-5.38277 -2.73363,-7.4569 -1.54317,-1.32809 -3.44709997,-2.4147 -4.23094997,-2.4147 -2.29156003,0 -2.96438003,-4.56722 -2.94633003,-20 0.0149,-12.74814 0.34716,-15.66409 2.75000003,-24.13504 C 3.8880114,42.02066 3.0991614,31.26339 -3.2133686,17.95118 l -2.68047,-5.65271 2.15842,-3.03122 c 4.95293,-6.95575 6.47291,-18.13371 3.95130003,-29.05792 -0.98191,-4.25387 -0.90889,-5.64111 0.46459,-8.82629 2.63588997,-6.11277 3.18121997,-12.65549 1.21841997,-14.61829 -2.47928997,-2.4793 -4.29176,-2.06429 -12.4723804,2.85582 -7.27356,4.37457 -10.7124,5.21544 -15.77718,3.85786 -2.1708,-0.58186 -2.06713,-0.92072 3.80607,-12.44061 6.10001,-11.96479 8.57647,-15.2948 14.9120404,-20.0517 3.06318,-2.29991 3.47314,-3.12849 3.37625,-6.82375 -0.14054,-5.35963 -1.90514,-7.41863 -2.8135,-3.28289 -0.86328,3.93047 -4.7210804,7.47993 -7.6698204,7.05679 -3.04645,-0.43715 -9.14665,-9.20606 -11.73384,-16.86715 -1.77704,-5.26211 -1.84905,-6.40327 -0.683,-10.82357 1.99026,-7.54471 6.39042,-14.89416 13.35336,-22.30368 8.9561604,-9.53058 10.3674304,-9.89267 37.18401,-9.5404 20.72331,0.27223 21.65832,0.3713 25.88255,2.74243 7.98627,4.48283 19.60218,21.69947 20.83332,30.87833 0.67799,5.05477 -2.39736,13.65708 -7.26864,20.33167 -2.78282,3.813 -4.0496,4.75 -6.42176,4.75 -3.05745,0 -4.60722,-1.78934 -5.97307,-6.89647 -0.60578,-2.26509 -0.98716,-1.8401 -3.86228,4.30388 -3.75171,8.01723 -3.83175,8.88277 -1.1674,12.6245 3.60074,5.05677 7.97764,15.47271 9.47816,22.55565 1.69805,8.01536 1.92092,25.19252 0.48543,37.41243 -2.01024,17.1126 -3.98423,47.87554 -3.98526,62.10681 -10e-4,18.06476 1.83073,41.25067 3.30211,41.79092 2.86828,1.05316 5.69504,5.19812 5.66504,8.30682 -0.0611,6.33362 -0.42798,6.44874 -21.9682,6.89314 -10.725,0.22127 -22.23246,0.27041 -25.57213,0.10921 z m 26.22474,-21.9569 c -0.35012,-3.7125 -0.9369,-16.9908 -1.30393,-29.50733 -0.36704,-12.51654 -0.77588,-22.64154 -0.90854,-22.5 -0.13265,0.14153 -0.75595,5.43233 -1.38511,11.75733 -1.09394,10.99758 -6.68389,44.59046 -7.69117,46.22028 -0.26504,0.42885 2.30974,0.77972 5.72173,0.77972 l 6.20362,0 z"
       id="path2996-3"
       inkscape:connector-curvature="0"
       sodipodi:nodetypes="cccssssscsssssssssssssssssssssssscsssccsssssscs" />
  </g>
</svg>
